<svg width="666" height="600" viewBox="0 0 666 600" fill="none" xmlns="http://www.w3.org/2000/svg">
<path d="M385.386 167.78L380.38 159.362L353.076 175.289L358.082 183.935L342.382 211.239L332.598 211.466L332.826 243.093L342.61 242.866L358.764 270.169L353.759 278.816L381.29 294.288L386.068 285.869L417.695 285.642L422.701 294.06L450.005 278.133L444.999 269.487L460.699 242.183L470.482 241.956L470.255 210.329L460.471 210.556L444.316 183.253L449.322 174.606L421.791 159.134L416.785 167.553L385.386 167.78Z" fill="white" stroke="#2953E8" stroke-width="0.6218" stroke-miterlimit="10" stroke-linecap="round" stroke-linejoin="round"/>
<path d="M401.313 201.455C415.192 201.455 426.569 212.604 426.796 226.483C426.796 240.363 415.647 251.739 401.768 251.967C387.888 251.967 376.512 240.818 376.284 226.939C376.057 212.832 387.433 201.455 401.313 201.455Z" fill="white" stroke="#2953E8" stroke-width="0.6218" stroke-miterlimit="10" stroke-linecap="round" stroke-linejoin="round"/>
<path d="M74.3504 69.0319C74.3504 69.0319 12.4619 122.957 80.9488 191.671" stroke="#2953E8" stroke-width="0.6218" stroke-miterlimit="10" stroke-linecap="round" stroke-linejoin="round" stroke-dasharray="6.22 6.22"/>
<path d="M20.198 369.146C11.3242 384.39 -8.01593 398.952 5.86348 420.113C15.4198 434.675 34.3049 439.908 27.0239 460.613C24.066 468.804 18.3777 474.948 20.198 484.276C21.5631 492.24 27.934 498.611 33.3948 504.072C38.1729 508.85 45.6815 513.4 49.322 519.089C55.0102 528.645 49.0944 535.698 46.3641 545.255C43.8612 554.129 43.4061 564.14 48.4118 572.559C55.0102 583.708 67.9795 584.845 76.3982 592.809C76.3982 592.809 115.306 618.292 131.461 571.193C135.329 560.044 140.79 549.805 138.059 537.291C136.011 527.735 128.958 520.681 120.994 515.903C112.576 510.898 103.474 509.532 101.199 498.838C99.8339 492.24 102.337 483.594 102.564 476.995C102.792 469.259 103.247 460.158 98.6963 453.332C93.6906 445.369 85.2719 444.686 77.5358 440.59C57.9681 430.579 68.4346 413.742 65.4767 396.677C61.1536 371.876 37.2628 374.151 20.4255 369.146H20.198Z" fill="#D4E6FC" stroke="#D4E6FC" stroke-width="0.1554" stroke-miterlimit="10"/>
<path d="M35.6702 408.281L110.528 598.725" stroke="#2953E8" stroke-width="0.6218" stroke-miterlimit="10" stroke-linecap="round" stroke-linejoin="round"/>
<path d="M38.8555 474.265L68.4345 491.785" stroke="#2953E8" stroke-width="0.6218" stroke-miterlimit="10" stroke-linecap="round" stroke-linejoin="round"/>
<path d="M96.4209 563.23L112.576 537.064" stroke="#2953E8" stroke-width="0.6218" stroke-miterlimit="10" stroke-linecap="round" stroke-linejoin="round"/>
<path d="M58.6506 466.529L66.3867 442.638" stroke="#2953E8" stroke-width="0.6218" stroke-miterlimit="10" stroke-linecap="round" stroke-linejoin="round"/>
<path d="M85.272 365.505H235.67V276.085L85.272 298.611V365.505Z" fill="#2953E8"/>
<path d="M82.9966 599.635L106.432 575.516H126.455V599.635H82.9966Z" fill="#2953E8"/>
<path d="M212.234 599.635L196.99 575.516H177.195V599.635H212.234Z" fill="#2953E8"/>
<path d="M223.838 365.05V581.887H163.088V408.964H155.124L143.975 581.887H82.9966L94.1456 408.964L97.1035 365.05H223.838Z" fill="white" stroke="#2953E8" stroke-width="0.6158" stroke-miterlimit="10" stroke-linecap="round" stroke-linejoin="round"/>
<path d="M252.962 257.655C252.962 207.598 214.51 185.073 164.453 183.935C163.315 183.935 162.405 183.935 161.267 183.935C85.7269 183.935 62.0637 238.77 58.4232 248.327C50.4596 269.487 28.1615 335.471 100.289 365.96C121.904 375.061 137.604 352.763 149.208 346.848C169.458 336.381 176.739 333.878 176.739 333.878L252.962 257.655Z" fill="#2953E8"/>
<path d="M219.515 282.684C219.515 282.684 227.479 319.316 272.53 311.353C317.581 303.389 304.384 234.22 304.384 234.22H269.572L268.207 266.074C268.207 266.074 249.777 218.292 226.569 201.91C212.689 191.899 219.515 282.684 219.515 282.684Z" fill="#2953E8"/>
<path d="M235.215 268.349V306.347" stroke="white" stroke-width="0.6218" stroke-miterlimit="10" stroke-linecap="round" stroke-linejoin="round"/>
<path d="M131.006 357.769L143.52 370.511L153.759 382.57L149.436 386.893L153.304 391.899L132.143 408.281L104.612 375.289L131.006 357.769Z" fill="white" stroke="#2953E8" stroke-width="0.6218" stroke-miterlimit="10" stroke-linecap="round" stroke-linejoin="round"/>
<path d="M148.981 395.084L139.879 384.618" stroke="#2953E8" stroke-width="0.6218" stroke-miterlimit="10" stroke-linecap="round" stroke-linejoin="round"/>
<path d="M142.837 399.18L133.964 388.713" stroke="#2953E8" stroke-width="0.6218" stroke-miterlimit="10" stroke-linecap="round" stroke-linejoin="round"/>
<path d="M137.377 403.503L128.275 393.264" stroke="#2953E8" stroke-width="0.6218" stroke-miterlimit="10" stroke-linecap="round" stroke-linejoin="round"/>
<path d="M149.663 387.121L142.837 379.385" stroke="#2953E8" stroke-width="0.6218" stroke-miterlimit="10" stroke-linecap="round" stroke-linejoin="round"/>
<path d="M97.1034 270.17C77.9908 310.898 136.466 355.721 136.466 355.721L101.427 381.887C101.427 381.887 54.3276 342.069 52.0522 315.221" fill="#2953E8"/>
<path d="M156.944 161.637C156.944 161.637 134.646 167.325 133.281 140.249C131.916 113.173 175.374 103.389 185.613 114.766C196.08 126.142 156.944 161.637 156.944 161.637Z" fill="#2953E8"/>
<path d="M159.219 198.725C166.728 198.725 172.871 192.581 172.871 185.073V140.249H145.34V184.845C145.34 192.581 151.483 198.725 159.219 198.725Z" fill="white" stroke="#2953E8" stroke-width="0.6218" stroke-miterlimit="10" stroke-linecap="round" stroke-linejoin="round"/>
<path d="M135.784 142.524C135.556 146.62 138.514 150.488 142.837 150.716C143.52 150.716 144.202 150.716 144.657 150.716C144.885 153.446 145.795 156.176 147.16 158.452C150.346 164.14 156.262 168.235 163.315 168.691C174.464 169.601 184.248 161.182 185.158 150.033C186.068 138.884 177.65 129.1 166.5 128.19C158.992 127.507 151.938 131.148 148.07 137.064C146.933 136.154 145.568 135.699 143.975 135.471C139.652 135.243 136.011 138.201 135.784 142.524Z" fill="white" stroke="#2953E8" stroke-width="0.6218" stroke-miterlimit="10" stroke-linecap="round" stroke-linejoin="round"/>
<path d="M147.16 146.392C147.16 146.392 147.16 142.524 143.292 142.752" stroke="#2953E8" stroke-width="0.6218" stroke-miterlimit="10" stroke-linecap="round" stroke-linejoin="round"/>
<path d="M580.608 232.627H198.355V599.635H580.608V232.627Z" fill="#D4E6FC"/>
<path d="M275.033 219.43L275.26 240.818L302.109 240.59L302.564 219.658L275.033 219.43Z" fill="white" stroke="#2953E8" stroke-width="0.6218" stroke-miterlimit="10" stroke-linecap="round" stroke-linejoin="round"/>
<path d="M280.721 240.363L281.176 226.711" stroke="#2953E8" stroke-width="0.6218" stroke-miterlimit="10" stroke-linecap="round" stroke-linejoin="round"/>
<path d="M288.002 239.68L288.23 226.028" stroke="#2953E8" stroke-width="0.6218" stroke-miterlimit="10" stroke-linecap="round" stroke-linejoin="round"/>
<path d="M295.056 239.68L295.511 225.801" stroke="#2953E8" stroke-width="0.6218" stroke-miterlimit="10" stroke-linecap="round" stroke-linejoin="round"/>
<path d="M97.1034 270.17C77.9908 310.898 136.466 355.721 136.466 355.721" stroke="white" stroke-width="0.6218" stroke-miterlimit="10" stroke-linecap="round" stroke-linejoin="round"/>
<path d="M529.413 302.479H250.232V345.482H529.413V302.479Z" fill="white"/>
<path d="M529.413 363.457H250.232V406.461H529.413V363.457Z" fill="white"/>
<path d="M529.413 426.256H250.232V469.259H529.413V426.256Z" fill="white"/>
<path d="M473.895 499.749H305.75V542.752H473.895V499.749Z" fill="#2953E8"/>
<path d="M522.815 206.006C552.471 206.006 576.512 181.965 576.512 152.308C576.512 122.652 552.471 98.6109 522.815 98.6109C493.158 98.6109 469.117 122.652 469.117 152.308C469.117 181.965 493.158 206.006 522.815 206.006Z" fill="white" stroke="#2953E8" stroke-width="0.6218" stroke-miterlimit="10" stroke-linecap="round" stroke-linejoin="round" stroke-dasharray="6.22 6.22"/>
<path d="M32.9397 599.635H665.477" stroke="#2953E8" stroke-width="0.6218" stroke-miterlimit="10" stroke-linecap="round" stroke-linejoin="round"/>
<path d="M609.731 599.635H515.989L503.247 495.198H622.473L609.731 599.635Z" fill="#2953E8"/>
<path d="M630.209 495.198H495.283V518.861H630.209V495.198Z" fill="white" stroke="#2953E8" stroke-width="0.6218" stroke-miterlimit="10" stroke-linecap="round" stroke-linejoin="round"/>
<path d="M562.86 495.198V388.941" stroke="#2953E8" stroke-width="0.6218" stroke-miterlimit="10" stroke-linecap="round" stroke-linejoin="round"/>
<path d="M562.86 439.225C595.658 439.225 622.246 412.637 622.246 379.84C622.246 347.042 595.658 320.454 562.86 320.454C530.062 320.454 503.474 347.042 503.474 379.84C503.474 412.637 530.062 439.225 562.86 439.225Z" fill="white" stroke="#2953E8" stroke-width="0.6218" stroke-miterlimit="10" stroke-linecap="round" stroke-linejoin="round"/>
<path d="M596.457 413.471C615.028 394.901 615.028 364.791 596.457 346.22C577.886 327.65 547.777 327.65 529.206 346.22C510.635 364.791 510.635 394.901 529.206 413.471C547.777 432.042 577.886 432.042 596.457 413.471Z" fill="white" stroke="#2953E8" stroke-width="0.6158" stroke-miterlimit="10" stroke-linecap="round" stroke-linejoin="round"/>
<path d="M562.86 494.97C562.86 494.97 562.86 449.692 516.899 444.231C513.258 482.001 562.86 494.97 562.86 494.97Z" fill="#2953E8"/>
<path d="M526.683 456.745L551.939 481.546" stroke="white" stroke-width="0.6218" stroke-miterlimit="10" stroke-linecap="round" stroke-linejoin="round"/>
<path d="M563.088 495.653C563.088 495.653 563.088 450.374 609.049 444.914C612.689 482.456 563.088 495.653 563.088 495.653Z" fill="#2953E8"/>
<path d="M599.265 457.2L574.009 482.001" stroke="white" stroke-width="0.6218" stroke-miterlimit="10" stroke-linecap="round" stroke-linejoin="round"/>
<path d="M543.747 373.014V386.21C543.747 397.132 552.393 405.778 563.315 405.778C574.236 405.778 582.883 396.904 582.883 386.21V373.014H543.747ZM565.59 393.264H560.812V383.253H565.59V393.264Z" fill="#2953E8"/>
<path d="M575.374 369.373V366.87C575.374 360.044 569.913 354.584 563.087 354.584C556.262 354.584 550.801 360.044 550.801 366.87V369.373" stroke="#2953E8" stroke-width="2" stroke-miterlimit="10"/>
<path d="M603.588 310.67C603.588 310.67 642.951 239.68 572.644 199.862" stroke="#2953E8" stroke-width="0.6218" stroke-miterlimit="10" stroke-linecap="round" stroke-linejoin="round" stroke-dasharray="6.22 6.22"/>
<path d="M356.489 164.367L354.214 147.303L348.981 147.985L338.514 134.333L340.562 129.328L324.862 122.729L322.814 127.735L305.75 130.01L302.564 125.687L288.912 136.154L292.098 140.477L285.499 156.176L280.266 156.859L282.541 173.924L287.775 173.241L298.241 186.893L296.193 191.899L311.893 198.497L313.941 193.491L331.006 191.216L334.191 195.539L347.843 185.073L344.657 180.75L351.256 165.05L356.489 164.367ZM320.312 174.379C312.803 175.289 305.977 170.056 305.067 162.547C304.157 155.039 309.39 148.213 316.899 147.303C324.407 146.392 331.233 151.626 332.143 159.134C333.053 166.415 327.593 173.241 320.312 174.379Z" fill="#2953E8"/>
<path d="M333.964 1H96.4209V68.8043H333.964V1Z" fill="white" stroke="#2953E8" stroke-width="0.6218" stroke-miterlimit="10" stroke-linecap="round" stroke-linejoin="round" stroke-dasharray="6.22 6.22"/>
<path d="M132.143 45.3686C137.924 45.3686 142.61 40.6826 142.61 34.9022C142.61 29.1217 137.924 24.4357 132.143 24.4357C126.363 24.4357 121.677 29.1217 121.677 34.9022C121.677 40.6826 126.363 45.3686 132.143 45.3686Z" fill="#D4E6FC"/>
<path d="M165.135 45.3686C170.916 45.3686 175.602 40.6826 175.602 34.9022C175.602 29.1217 170.916 24.4357 165.135 24.4357C159.355 24.4357 154.669 29.1217 154.669 34.9022C154.669 40.6826 159.355 45.3686 165.135 45.3686Z" fill="#D4E6FC"/>
<path d="M198.355 45.3686C204.135 45.3686 208.821 40.6826 208.821 34.9022C208.821 29.1217 204.135 24.4357 198.355 24.4357C192.574 24.4357 187.888 29.1217 187.888 34.9022C187.888 40.6826 192.574 45.3686 198.355 45.3686Z" fill="#D4E6FC"/>
<path d="M231.347 45.3686C237.128 45.3686 241.814 40.6826 241.814 34.9022C241.814 29.1217 237.128 24.4357 231.347 24.4357C225.567 24.4357 220.881 29.1217 220.881 34.9022C220.881 40.6826 225.567 45.3686 231.347 45.3686Z" fill="#D4E6FC"/>
<path d="M264.567 45.3686C270.347 45.3686 275.033 40.6826 275.033 34.9022C275.033 29.1217 270.347 24.4357 264.567 24.4357C258.786 24.4357 254.1 29.1217 254.1 34.9022C254.1 40.6826 258.786 45.3686 264.567 45.3686Z" fill="#D4E6FC"/>
<path d="M308.025 34.9022C308.025 40.5904 303.247 45.3686 297.559 45.3686C291.87 45.3686 287.092 40.5904 287.092 34.9022C287.092 29.2139 291.87 24.4357 297.559 24.4357C303.247 24.4357 308.025 29.2139 308.025 34.9022Z" fill="#D4E6FC"/>
<path d="M539.425 153.218C534.191 158.452 525.773 158.452 520.767 153.218C515.534 147.985 515.534 139.567 520.767 134.561C526 129.328 534.419 129.328 539.425 134.561C544.658 139.567 544.658 147.985 539.425 153.218Z" fill="#2953E8"/>
<path d="M530.096 143.662L506.887 166.87L514.168 174.151" stroke="#2953E8" stroke-width="3" stroke-miterlimit="10"/>
<path d="M518.719 165.733L513.486 160.272" stroke="#2953E8" stroke-width="3" stroke-miterlimit="10"/>
<path d="M534.874 148.668C532.143 151.398 527.593 151.398 524.862 148.668C522.132 145.937 522.132 141.387 524.862 138.656C527.593 135.926 532.143 135.926 534.874 138.656C537.832 141.614 537.832 145.937 534.874 148.668Z" fill="white"/>
</svg>
